<mxfile host="65bd71144e">
    <diagram id="vfPY3b2BzIa0LU5x6C-S" name="Page-1">
        <mxGraphModel dx="1468" dy="1969" grid="1" gridSize="10" guides="1" tooltips="1" connect="1" arrows="1" fold="1" page="1" pageScale="1" pageWidth="827" pageHeight="1169" math="0" shadow="0">
            <root>
                <mxCell id="0"/>
                <mxCell id="1" parent="0"/>
                <mxCell id="2" value="Jogador" style="swimlane;fontStyle=0;childLayout=stackLayout;horizontal=1;startSize=26;fillColor=none;horizontalStack=0;resizeParent=1;resizeParentMax=0;resizeLast=0;collapsible=1;marginBottom=0;" parent="1" vertex="1">
                    <mxGeometry x="400" y="-450" width="190" height="156" as="geometry"/>
                </mxCell>
                <mxCell id="3" value="+ id: Int" style="text;strokeColor=none;fillColor=none;align=left;verticalAlign=top;spacingLeft=4;spacingRight=4;overflow=hidden;rotatable=0;points=[[0,0.5],[1,0.5]];portConstraint=eastwest;" parent="2" vertex="1">
                    <mxGeometry y="26" width="190" height="26" as="geometry"/>
                </mxCell>
                <mxCell id="5" value="+ nome: String" style="text;strokeColor=none;fillColor=none;align=left;verticalAlign=top;spacingLeft=4;spacingRight=4;overflow=hidden;rotatable=0;points=[[0,0.5],[1,0.5]];portConstraint=eastwest;" parent="2" vertex="1">
                    <mxGeometry y="52" width="190" height="26" as="geometry"/>
                </mxCell>
                <mxCell id="4" value="+ altura: Float" style="text;strokeColor=none;fillColor=none;align=left;verticalAlign=top;spacingLeft=4;spacingRight=4;overflow=hidden;rotatable=0;points=[[0,0.5],[1,0.5]];portConstraint=eastwest;" parent="2" vertex="1">
                    <mxGeometry y="78" width="190" height="26" as="geometry"/>
                </mxCell>
                <mxCell id="7" value="+ dataDeNacimento: Date" style="text;strokeColor=none;fillColor=none;align=left;verticalAlign=top;spacingLeft=4;spacingRight=4;overflow=hidden;rotatable=0;points=[[0,0.5],[1,0.5]];portConstraint=eastwest;" parent="2" vertex="1">
                    <mxGeometry y="104" width="190" height="26" as="geometry"/>
                </mxCell>
                <mxCell id="8" value="+ genero: String" style="text;strokeColor=none;fillColor=none;align=left;verticalAlign=top;spacingLeft=4;spacingRight=4;overflow=hidden;rotatable=0;points=[[0,0.5],[1,0.5]];portConstraint=eastwest;" parent="2" vertex="1">
                    <mxGeometry y="130" width="190" height="26" as="geometry"/>
                </mxCell>
                <mxCell id="9" value="Campeonato" style="swimlane;fontStyle=0;childLayout=stackLayout;horizontal=1;startSize=26;fillColor=none;horizontalStack=0;resizeParent=1;resizeParentMax=0;resizeLast=0;collapsible=1;marginBottom=0;" parent="1" vertex="1">
                    <mxGeometry x="120" y="-310" width="140" height="104" as="geometry"/>
                </mxCell>
                <mxCell id="10" value="+ id: Int" style="text;strokeColor=none;fillColor=none;align=left;verticalAlign=top;spacingLeft=4;spacingRight=4;overflow=hidden;rotatable=0;points=[[0,0.5],[1,0.5]];portConstraint=eastwest;" parent="9" vertex="1">
                    <mxGeometry y="26" width="140" height="26" as="geometry"/>
                </mxCell>
                <mxCell id="11" value="+ ano: Int" style="text;strokeColor=none;fillColor=none;align=left;verticalAlign=top;spacingLeft=4;spacingRight=4;overflow=hidden;rotatable=0;points=[[0,0.5],[1,0.5]];portConstraint=eastwest;" parent="9" vertex="1">
                    <mxGeometry y="52" width="140" height="26" as="geometry"/>
                </mxCell>
                <mxCell id="49" value="+ nome : String" style="text;strokeColor=none;fillColor=none;align=left;verticalAlign=top;spacingLeft=4;spacingRight=4;overflow=hidden;rotatable=0;points=[[0,0.5],[1,0.5]];portConstraint=eastwest;" vertex="1" parent="9">
                    <mxGeometry y="78" width="140" height="26" as="geometry"/>
                </mxCell>
                <mxCell id="13" value="Partida" style="swimlane;fontStyle=0;childLayout=stackLayout;horizontal=1;startSize=26;fillColor=none;horizontalStack=0;resizeParent=1;resizeParentMax=0;resizeLast=0;collapsible=1;marginBottom=0;" parent="1" vertex="1">
                    <mxGeometry x="120" y="-70" width="140" height="130" as="geometry"/>
                </mxCell>
                <mxCell id="14" value="+ id: Int" style="text;strokeColor=none;fillColor=none;align=left;verticalAlign=top;spacingLeft=4;spacingRight=4;overflow=hidden;rotatable=0;points=[[0,0.5],[1,0.5]];portConstraint=eastwest;" parent="13" vertex="1">
                    <mxGeometry y="26" width="140" height="26" as="geometry"/>
                </mxCell>
                <mxCell id="15" value="+ golsAnfitriao: Int" style="text;strokeColor=none;fillColor=none;align=left;verticalAlign=top;spacingLeft=4;spacingRight=4;overflow=hidden;rotatable=0;points=[[0,0.5],[1,0.5]];portConstraint=eastwest;" parent="13" vertex="1">
                    <mxGeometry y="52" width="140" height="26" as="geometry"/>
                </mxCell>
                <mxCell id="16" value="+ golsVisitante: Int" style="text;strokeColor=none;fillColor=none;align=left;verticalAlign=top;spacingLeft=4;spacingRight=4;overflow=hidden;rotatable=0;points=[[0,0.5],[1,0.5]];portConstraint=eastwest;" parent="13" vertex="1">
                    <mxGeometry y="78" width="140" height="26" as="geometry"/>
                </mxCell>
                <mxCell id="48" value="+ data : Date" style="text;strokeColor=none;fillColor=none;align=left;verticalAlign=top;spacingLeft=4;spacingRight=4;overflow=hidden;rotatable=0;points=[[0,0.5],[1,0.5]];portConstraint=eastwest;" vertex="1" parent="13">
                    <mxGeometry y="104" width="140" height="26" as="geometry"/>
                </mxCell>
                <mxCell id="17" value="Estadio" style="swimlane;fontStyle=0;childLayout=stackLayout;horizontal=1;startSize=26;fillColor=none;horizontalStack=0;resizeParent=1;resizeParentMax=0;resizeLast=0;collapsible=1;marginBottom=0;" parent="1" vertex="1">
                    <mxGeometry x="420" y="160" width="140" height="78" as="geometry"/>
                </mxCell>
                <mxCell id="19" value="+ nome: String" style="text;strokeColor=none;fillColor=none;align=left;verticalAlign=top;spacingLeft=4;spacingRight=4;overflow=hidden;rotatable=0;points=[[0,0.5],[1,0.5]];portConstraint=eastwest;" parent="17" vertex="1">
                    <mxGeometry y="26" width="140" height="26" as="geometry"/>
                </mxCell>
                <mxCell id="18" value="+ id: Int" style="text;strokeColor=none;fillColor=none;align=left;verticalAlign=top;spacingLeft=4;spacingRight=4;overflow=hidden;rotatable=0;points=[[0,0.5],[1,0.5]];portConstraint=eastwest;" parent="17" vertex="1">
                    <mxGeometry y="52" width="140" height="26" as="geometry"/>
                </mxCell>
                <mxCell id="21" value="Time" style="swimlane;fontStyle=0;childLayout=stackLayout;horizontal=1;startSize=26;fillColor=none;horizontalStack=0;resizeParent=1;resizeParentMax=0;resizeLast=0;collapsible=1;marginBottom=0;" parent="1" vertex="1">
                    <mxGeometry x="420" y="-160" width="140" height="78" as="geometry"/>
                </mxCell>
                <mxCell id="22" value="+ id: Int" style="text;strokeColor=none;fillColor=none;align=left;verticalAlign=top;spacingLeft=4;spacingRight=4;overflow=hidden;rotatable=0;points=[[0,0.5],[1,0.5]];portConstraint=eastwest;" parent="21" vertex="1">
                    <mxGeometry y="26" width="140" height="26" as="geometry"/>
                </mxCell>
                <mxCell id="23" value="+ nome: String" style="text;strokeColor=none;fillColor=none;align=left;verticalAlign=top;spacingLeft=4;spacingRight=4;overflow=hidden;rotatable=0;points=[[0,0.5],[1,0.5]];portConstraint=eastwest;" parent="21" vertex="1">
                    <mxGeometry y="52" width="140" height="26" as="geometry"/>
                </mxCell>
                <mxCell id="25" value="EndereÃ§o" style="swimlane;fontStyle=0;childLayout=stackLayout;horizontal=1;startSize=26;fillColor=none;horizontalStack=0;resizeParent=1;resizeParentMax=0;resizeLast=0;collapsible=1;marginBottom=0;" parent="1" vertex="1">
                    <mxGeometry x="680" y="-64" width="140" height="182" as="geometry"/>
                </mxCell>
                <mxCell id="26" value="+ estado: String" style="text;strokeColor=none;fillColor=none;align=left;verticalAlign=top;spacingLeft=4;spacingRight=4;overflow=hidden;rotatable=0;points=[[0,0.5],[1,0.5]];portConstraint=eastwest;" parent="25" vertex="1">
                    <mxGeometry y="26" width="140" height="26" as="geometry"/>
                </mxCell>
                <mxCell id="27" value="+ cidade: String" style="text;strokeColor=none;fillColor=none;align=left;verticalAlign=top;spacingLeft=4;spacingRight=4;overflow=hidden;rotatable=0;points=[[0,0.5],[1,0.5]];portConstraint=eastwest;" parent="25" vertex="1">
                    <mxGeometry y="52" width="140" height="26" as="geometry"/>
                </mxCell>
                <mxCell id="28" value="+ logradouro: String" style="text;strokeColor=none;fillColor=none;align=left;verticalAlign=top;spacingLeft=4;spacingRight=4;overflow=hidden;rotatable=0;points=[[0,0.5],[1,0.5]];portConstraint=eastwest;" parent="25" vertex="1">
                    <mxGeometry y="78" width="140" height="26" as="geometry"/>
                </mxCell>
                <mxCell id="29" value="+ numero: String" style="text;strokeColor=none;fillColor=none;align=left;verticalAlign=top;spacingLeft=4;spacingRight=4;overflow=hidden;rotatable=0;points=[[0,0.5],[1,0.5]];portConstraint=eastwest;" parent="25" vertex="1">
                    <mxGeometry y="104" width="140" height="26" as="geometry"/>
                </mxCell>
                <mxCell id="31" value="+ complemento: String" style="text;strokeColor=none;fillColor=none;align=left;verticalAlign=top;spacingLeft=4;spacingRight=4;overflow=hidden;rotatable=0;points=[[0,0.5],[1,0.5]];portConstraint=eastwest;" parent="25" vertex="1">
                    <mxGeometry y="130" width="140" height="26" as="geometry"/>
                </mxCell>
                <mxCell id="30" value="+ CEP: String" style="text;strokeColor=none;fillColor=none;align=left;verticalAlign=top;spacingLeft=4;spacingRight=4;overflow=hidden;rotatable=0;points=[[0,0.5],[1,0.5]];portConstraint=eastwest;" parent="25" vertex="1">
                    <mxGeometry y="156" width="140" height="26" as="geometry"/>
                </mxCell>
                <mxCell id="50" value="" style="endArrow=none;html=1;exitX=0.474;exitY=1;exitDx=0;exitDy=0;exitPerimeter=0;entryX=0.5;entryY=0;entryDx=0;entryDy=0;" edge="1" parent="1" source="8" target="21">
                    <mxGeometry relative="1" as="geometry">
                        <mxPoint x="480" y="-130" as="sourcePoint"/>
                        <mxPoint x="640" y="-130" as="targetPoint"/>
                    </mxGeometry>
                </mxCell>
                <mxCell id="51" value="jogadores&lt;br&gt;*" style="edgeLabel;resizable=0;html=1;align=left;verticalAlign=bottom;strokeColor=default;" connectable="0" vertex="1" parent="50">
                    <mxGeometry x="-1" relative="1" as="geometry">
                        <mxPoint y="34" as="offset"/>
                    </mxGeometry>
                </mxCell>
                <mxCell id="52" value="timeEmQueJoga&lt;br&gt;1" style="edgeLabel;resizable=0;html=1;align=left;verticalAlign=bottom;strokeColor=default;" connectable="0" vertex="1" parent="50">
                    <mxGeometry x="1" relative="1" as="geometry">
                        <mxPoint as="offset"/>
                    </mxGeometry>
                </mxCell>
                <mxCell id="53" value="" style="endArrow=none;html=1;edgeStyle=orthogonalEdgeStyle;exitX=1;exitY=0.5;exitDx=0;exitDy=0;" edge="1" parent="1" source="22" target="2">
                    <mxGeometry relative="1" as="geometry">
                        <mxPoint x="570" y="-108" as="sourcePoint"/>
                        <mxPoint x="600" y="-372" as="targetPoint"/>
                        <Array as="points">
                            <mxPoint x="560" y="-108"/>
                            <mxPoint x="670" y="-108"/>
                            <mxPoint x="670" y="-372"/>
                        </Array>
                    </mxGeometry>
                </mxCell>
                <mxCell id="54" value="timeQueCapitaneia&lt;br&gt;0..1" style="edgeLabel;resizable=0;html=1;align=left;verticalAlign=bottom;strokeColor=default;" connectable="0" vertex="1" parent="53">
                    <mxGeometry x="-1" relative="1" as="geometry">
                        <mxPoint y="41" as="offset"/>
                    </mxGeometry>
                </mxCell>
                <mxCell id="55" value="capitao&lt;br&gt;1" style="edgeLabel;resizable=0;html=1;align=left;verticalAlign=bottom;strokeColor=default;" connectable="0" vertex="1" parent="53">
                    <mxGeometry x="1" relative="1" as="geometry">
                        <mxPoint x="4" y="-2" as="offset"/>
                    </mxGeometry>
                </mxCell>
                <mxCell id="56" value="" style="endArrow=none;html=1;edgeStyle=orthogonalEdgeStyle;exitX=1;exitY=0.5;exitDx=0;exitDy=0;" edge="1" parent="1" source="18" target="25">
                    <mxGeometry relative="1" as="geometry">
                        <mxPoint x="460" y="-20" as="sourcePoint"/>
                        <mxPoint x="620" y="-20" as="targetPoint"/>
                    </mxGeometry>
                </mxCell>
                <mxCell id="57" value="estadio&lt;br&gt;1" style="edgeLabel;resizable=0;html=1;align=left;verticalAlign=bottom;strokeColor=default;" connectable="0" vertex="1" parent="56">
                    <mxGeometry x="-1" relative="1" as="geometry"/>
                </mxCell>
                <mxCell id="58" value="endereco&lt;br&gt;1" style="edgeLabel;resizable=0;html=1;align=right;verticalAlign=bottom;strokeColor=default;" connectable="0" vertex="1" parent="56">
                    <mxGeometry x="1" relative="1" as="geometry">
                        <mxPoint y="32" as="offset"/>
                    </mxGeometry>
                </mxCell>
                <mxCell id="59" value="" style="endArrow=none;html=1;edgeStyle=orthogonalEdgeStyle;exitX=1;exitY=0.5;exitDx=0;exitDy=0;entryX=0;entryY=0;entryDx=0;entryDy=0;" edge="1" parent="1" source="11" target="21">
                    <mxGeometry relative="1" as="geometry">
                        <mxPoint x="300" y="-170" as="sourcePoint"/>
                        <mxPoint x="460" y="-170" as="targetPoint"/>
                    </mxGeometry>
                </mxCell>
                <mxCell id="60" value="campeonatos&lt;br&gt;*" style="edgeLabel;resizable=0;html=1;align=left;verticalAlign=bottom;strokeColor=default;" connectable="0" vertex="1" parent="59">
                    <mxGeometry x="-1" relative="1" as="geometry"/>
                </mxCell>
                <mxCell id="61" value="times&lt;br&gt;*" style="edgeLabel;resizable=0;html=1;align=right;verticalAlign=bottom;strokeColor=default;" connectable="0" vertex="1" parent="59">
                    <mxGeometry x="1" relative="1" as="geometry"/>
                </mxCell>
                <mxCell id="62" value="" style="endArrow=none;html=1;edgeStyle=orthogonalEdgeStyle;exitX=0.5;exitY=0;exitDx=0;exitDy=0;entryX=0;entryY=0.5;entryDx=0;entryDy=0;" edge="1" parent="1" source="13" target="22">
                    <mxGeometry relative="1" as="geometry">
                        <mxPoint x="240" y="-20" as="sourcePoint"/>
                        <mxPoint x="400" y="-20" as="targetPoint"/>
                    </mxGeometry>
                </mxCell>
                <mxCell id="63" value="partidasComoAnfitriao&lt;br&gt;*" style="edgeLabel;resizable=0;html=1;align=left;verticalAlign=bottom;strokeColor=default;" connectable="0" vertex="1" parent="62">
                    <mxGeometry x="-1" relative="1" as="geometry"/>
                </mxCell>
                <mxCell id="64" value="timeAnfitriao&lt;br&gt;1" style="edgeLabel;resizable=0;html=1;align=right;verticalAlign=bottom;strokeColor=default;" connectable="0" vertex="1" parent="62">
                    <mxGeometry x="1" relative="1" as="geometry"/>
                </mxCell>
                <mxCell id="66" value="" style="endArrow=none;html=1;edgeStyle=orthogonalEdgeStyle;exitX=1;exitY=0.5;exitDx=0;exitDy=0;entryX=0.464;entryY=1.038;entryDx=0;entryDy=0;entryPerimeter=0;" edge="1" parent="1" source="15" target="23">
                    <mxGeometry relative="1" as="geometry">
                        <mxPoint x="240" y="-40" as="sourcePoint"/>
                        <mxPoint x="487" y="-70" as="targetPoint"/>
                    </mxGeometry>
                </mxCell>
                <mxCell id="67" value="partidasComoVisitante&lt;br&gt;*" style="edgeLabel;resizable=0;html=1;align=left;verticalAlign=bottom;strokeColor=default;" connectable="0" vertex="1" parent="66">
                    <mxGeometry x="-1" relative="1" as="geometry"/>
                </mxCell>
                <mxCell id="68" value="timeVisitante&lt;br&gt;1" style="edgeLabel;resizable=0;html=1;align=right;verticalAlign=bottom;strokeColor=default;" connectable="0" vertex="1" parent="66">
                    <mxGeometry x="1" relative="1" as="geometry">
                        <mxPoint x="-5" y="30" as="offset"/>
                    </mxGeometry>
                </mxCell>
                <mxCell id="74" value="" style="endArrow=none;html=1;entryX=0.5;entryY=0;entryDx=0;entryDy=0;" edge="1" parent="1" source="21" target="17">
                    <mxGeometry relative="1" as="geometry">
                        <mxPoint x="400" y="-70" as="sourcePoint"/>
                        <mxPoint x="560" y="-70" as="targetPoint"/>
                    </mxGeometry>
                </mxCell>
                <mxCell id="75" value="time&lt;br&gt;1" style="edgeLabel;resizable=0;html=1;align=left;verticalAlign=bottom;strokeColor=default;" connectable="0" vertex="1" parent="74">
                    <mxGeometry x="-1" relative="1" as="geometry">
                        <mxPoint y="33" as="offset"/>
                    </mxGeometry>
                </mxCell>
                <mxCell id="76" value="sede&lt;br&gt;1" style="edgeLabel;resizable=0;html=1;align=right;verticalAlign=bottom;strokeColor=default;" connectable="0" vertex="1" parent="74">
                    <mxGeometry x="1" relative="1" as="geometry"/>
                </mxCell>
                <mxCell id="77" value="" style="endArrow=none;html=1;edgeStyle=orthogonalEdgeStyle;entryX=0;entryY=0;entryDx=0;entryDy=0;" edge="1" parent="1" source="9" target="13">
                    <mxGeometry relative="1" as="geometry">
                        <mxPoint x="80" y="-90" as="sourcePoint"/>
                        <mxPoint x="240" y="-90" as="targetPoint"/>
                        <Array as="points">
                            <mxPoint x="110" y="-284"/>
                            <mxPoint x="110" y="-138"/>
                            <mxPoint x="120" y="-138"/>
                        </Array>
                    </mxGeometry>
                </mxCell>
                <mxCell id="78" value="campeonato&lt;br&gt;1" style="edgeLabel;resizable=0;html=1;align=left;verticalAlign=bottom;strokeColor=default;" connectable="0" vertex="1" parent="77">
                    <mxGeometry x="-1" relative="1" as="geometry">
                        <mxPoint x="-80" y="34" as="offset"/>
                    </mxGeometry>
                </mxCell>
                <mxCell id="79" value="partidas&lt;br&gt;*" style="edgeLabel;resizable=0;html=1;align=right;verticalAlign=bottom;strokeColor=default;" connectable="0" vertex="1" parent="77">
                    <mxGeometry x="1" relative="1" as="geometry"/>
                </mxCell>
            </root>
        </mxGraphModel>
    </diagram>
</mxfile>